<svg width="28" height="16" viewBox="0 0 28 16" fill="none" xmlns="http://www.w3.org/2000/svg">
<path fill-rule="evenodd" clip-rule="evenodd" d="M0 1C0 0.447716 0.447716 0 1 0H22C22.5523 0 23 0.447716 23 1C23 1.55228 22.5523 2 22 2H1C0.447716 2 0 1.55228 0 1ZM0 8C0 7.44772 0.447716 7 1 7H27C27.5523 7 28 7.44772 28 8C28 8.55228 27.5523 9 27 9H1C0.447714 9 0 8.55228 0 8ZM1 14C0.447716 14 0 14.4477 0 15C0 15.5523 0.447716 16 1 16H16C16.5523 16 17 15.5523 17 15C17 14.4477 16.5523 14 16 14H1Z" fill="#D9D9D9"/>
</svg>
